<svg  xmlns="http://www.w3.org/2000/svg" width="896.000000pt" height="896.000000pt" viewBox="0 0 896.000000 896.000000" preserveAspectRatio="xMidYMid meet">
  <g transform="translate(0.000000,896.000000) scale(0.100000,-0.100000)" fill="#000000" stroke="none">
    <path d="M3967 8292 c-56 -101 -87 -154 -105 -182 -9 -14 -22 -34 -28 -45 -48 -89 -148 -262 -214 -370 -20 -33 -43 -75 -51 -92 -8 -18 -17 -33 -21 -33 -5 0 -8 -7 -8 -15 0 -8 -4 -15 -8 -15 -4 0 -13 -12 -19 -27 -7 -16 -24 -48 -39 -73 -32 -55 -199 -342 -227 -390 -11 -19 -58 -100 -105 -180 -46 -80 -96 -165 -110 -190 -14 -25 -33 -58 -43 -75 -10 -16 -30 -50 -44 -75 -14 -25 -36 -63 -49 -85 -14 -22 -31 -51 -39 -65 -31 -57 -43 -75 -52 -82 -5 -4 -7 -8 -2 -8 6 0 -19 -46 -33 -60 -3 -3 -13 -21 -23 -40 -34 -64 -52 -95 -58 -100 -3 -3 -12 -18 -21 -35 -33 -64 -72 -130 -80 -133 -4 -2 -8 -9 -8 -16 0 -6 -20 -44 -45 -84 -25 -40 -45 -76 -45 -81 0 -5 -6 -16 -13 -23 -11 -12 -73 -115 -135 -228 -14 -25 -35 -61 -47 -80 -12 -19 -25 -42 -28 -50 -4 -8 -16 -28 -26 -45 -10 -16 -43 -73 -73 -125 -30 -52 -88 -151 -128 -220 -40 -68 -81 -138 -90 -155 -9 -16 -38 -65 -64 -108 -25 -43 -46 -83 -46 -88 0 -5 -4 -9 -10 -9 -5 0 -10 -4 -10 -10 0 -8 -80 -148 -227 -397 -13 -21 -26 -45 -30 -53 -7 -15 -74 -130 -93 -160 -5 -8 -19 -33 -31 -55 -12 -22 -59 -104 -105 -183 -46 -79 -84 -147 -84 -152 0 -6 -4 -10 -9 -10 -5 0 -11 -8 -15 -17 -3 -10 -10 -25 -16 -33 -8 -12 -153 -261 -230 -395 -9 -16 -43 -75 -75 -130 -32 -55 -81 -138 -108 -185 -26 -47 -58 -101 -69 -120 -11 -19 -30 -53 -41 -75 -12 -22 -25 -42 -28 -45 -4 -3 -18 -27 -33 -55 -15 -27 -32 -59 -39 -70 -27 -44 -59 -98 -76 -128 -10 -18 -66 -115 -126 -217 -59 -102 -113 -194 -119 -205 -6 -11 -47 -82 -91 -158 -44 -76 -93 -162 -110 -191 -16 -29 -35 -60 -41 -67 -24 -30 -23 -50 3 -92 14 -23 40 -67 56 -97 17 -30 33 -57 37 -60 3 -3 14 -22 23 -42 10 -21 22 -38 28 -38 8 0 92 52 124 78 6 4 28 19 50 32 22 13 46 30 53 37 7 7 17 13 22 13 5 0 15 7 23 15 8 8 28 22 45 32 17 10 72 46 122 81 50 34 95 62 100 62 4 0 10 3 12 8 4 10 217 152 229 152 5 0 9 4 9 9 0 5 9 13 20 16 11 3 26 12 33 18 23 22 197 137 206 137 5 0 11 3 13 8 2 4 199 138 438 297 239 159 441 295 448 302 7 7 20 13 28 13 8 0 14 4 14 8 0 5 10 14 23 19 12 6 31 18 42 27 11 9 43 31 70 49 28 17 57 38 65 45 8 6 19 12 24 11 5 0 12 3 15 8 3 5 47 36 96 68 50 33 96 65 103 72 7 7 19 13 27 13 7 0 16 7 19 16 4 9 9 14 13 10 9 -9 63 54 69 81 4 13 9 23 13 23 4 0 22 27 39 60 18 33 46 81 62 108 16 26 38 63 48 82 17 32 131 227 188 324 14 22 30 53 37 69 6 15 15 27 19 27 4 0 8 5 8 10 0 6 16 36 35 66 19 30 35 57 35 60 0 3 15 28 33 57 18 29 38 63 45 77 7 14 18 34 25 45 7 11 23 38 35 60 12 22 31 54 42 70 11 17 26 44 34 60 9 17 29 53 45 80 17 28 50 84 73 125 23 41 44 77 47 80 3 3 13 19 21 35 8 17 19 35 23 40 8 11 117 200 158 275 13 25 27 47 30 50 3 3 19 30 36 60 16 30 45 80 63 110 18 30 41 69 50 86 10 16 52 90 94 163 83 142 81 137 91 321 3 58 7 128 9 155 2 28 7 104 11 170 4 66 8 143 10 170 2 28 6 95 10 150 3 55 8 127 10 160 2 33 6 105 10 160 3 55 8 134 11 175 3 41 7 109 9 150 3 41 7 109 10 150 2 41 7 113 9 160 3 47 8 121 11 165 6 85 12 176 20 315 3 47 8 123 11 170 2 47 7 121 9 165 3 44 7 109 9 145 3 36 8 111 11 168 l7 102 -164 0 -163 0 -38 -68z"/>
    <path d="M4636 8297 c8 -120 16 -293 18 -354 0 -35 3 -63 6 -63 3 0 5 -30 6 -68 0 -37 4 -123 8 -192 4 -69 9 -161 11 -205 2 -44 6 -114 10 -155 3 -41 8 -127 11 -190 3 -63 8 -133 10 -155 3 -22 4 -49 4 -60 -2 -33 -2 -37 4 -125 3 -47 8 -125 11 -175 16 -286 21 -366 25 -375 1 -3 2 -8 2 -11 -3 -25 -3 -82 2 -129 2 -30 7 -104 11 -165 3 -60 8 -153 11 -205 3 -52 7 -131 9 -175 5 -120 14 -165 35 -195 11 -16 20 -30 20 -33 0 -3 23 -45 51 -94 28 -48 60 -104 71 -123 11 -19 35 -60 53 -90 18 -30 44 -76 58 -101 14 -25 76 -133 137 -240 62 -107 124 -214 138 -239 13 -25 40 -72 60 -105 50 -86 68 -118 163 -285 29 -52 59 -101 66 -108 7 -7 13 -17 13 -22 0 -5 20 -43 45 -84 25 -42 45 -78 45 -80 0 -2 37 -66 82 -142 44 -76 95 -164 111 -194 17 -30 38 -67 49 -82 10 -14 18 -28 18 -31 0 -3 23 -43 50 -90 28 -47 50 -90 50 -96 0 -6 5 -11 10 -11 6 0 10 -4 10 -10 0 -5 15 -33 33 -62 18 -29 44 -74 57 -100 14 -27 29 -48 33 -48 10 0 281 -183 285 -192 2 -5 9 -8 16 -8 7 0 21 -9 31 -20 10 -11 22 -20 28 -20 5 0 26 -13 47 -30 21 -16 43 -30 49 -30 7 0 14 -6 17 -14 3 -8 16 -17 30 -20 13 -4 24 -11 24 -16 0 -6 5 -10 10 -10 10 0 22 -8 55 -38 7 -6 16 -12 19 -12 4 0 68 -42 144 -93 75 -51 268 -181 427 -288 160 -106 295 -197 300 -202 6 -4 82 -55 170 -114 88 -58 162 -109 165 -113 3 -4 21 -15 40 -25 19 -10 37 -21 40 -24 3 -4 122 -85 265 -181 143 -95 262 -177 263 -182 2 -4 8 -8 13 -8 5 0 27 -12 49 -26 22 -15 42 -25 44 -23 8 10 95 158 111 189 10 19 21 37 24 40 3 3 15 20 25 39 14 24 16 36 8 39 -7 2 -12 10 -12 18 0 11 -36 77 -90 164 -19 31 -95 165 -99 175 -2 6 -16 28 -31 50 -15 22 -29 45 -30 50 -2 6 -8 19 -15 30 -38 62 -85 147 -85 156 0 5 -4 9 -10 9 -5 0 -10 4 -10 9 0 5 -23 49 -51 98 -29 48 -63 108 -77 133 -14 25 -48 86 -77 135 -29 50 -62 106 -72 125 -11 19 -35 61 -54 93 -19 33 -43 75 -55 95 -11 21 -30 53 -42 72 -12 19 -25 42 -29 50 -4 8 -23 42 -42 75 -55 93 -80 138 -94 165 -6 14 -14 27 -17 30 -7 7 -29 42 -37 60 -4 8 -26 48 -50 88 -24 41 -43 75 -43 77 0 2 -18 33 -40 69 -22 36 -40 70 -40 76 0 5 -4 10 -10 10 -5 0 -10 6 -10 14 0 7 -9 25 -21 40 -11 14 -18 26 -14 26 4 0 -1 7 -9 16 -9 8 -16 22 -16 30 0 8 -4 14 -10 14 -5 0 -10 4 -10 9 0 6 -17 38 -37 73 -21 35 -46 77 -55 93 -10 17 -26 47 -35 68 -10 20 -21 37 -25 37 -5 0 -8 7 -8 15 0 8 -4 15 -10 15 -5 0 -10 5 -10 11 0 6 -16 38 -36 72 -20 34 -48 82 -62 106 -14 25 -37 65 -52 90 -14 26 -29 53 -33 61 -4 8 -16 29 -27 45 -20 32 -27 45 -79 139 -18 33 -44 75 -57 95 -13 20 -24 39 -24 43 0 7 -32 61 -78 133 -6 11 -16 30 -21 42 -6 11 -15 24 -20 28 -6 3 -11 13 -11 21 0 8 -5 20 -11 27 -10 12 -110 180 -110 184 0 5 -34 65 -55 97 -11 17 -27 46 -35 64 -7 17 -17 32 -21 32 -5 0 -8 4 -8 10 0 5 -18 39 -40 75 -22 36 -40 67 -40 69 0 2 -44 80 -98 173 -55 94 -102 177 -106 184 -3 8 -17 32 -31 54 -14 22 -37 63 -52 90 -15 28 -33 59 -40 70 -7 11 -18 31 -25 45 -7 14 -15 27 -18 30 -3 3 -30 48 -59 100 -83 146 -82 145 -317 553 -43 72 -91 157 -107 187 -17 30 -41 72 -54 92 -13 21 -23 42 -23 48 0 5 -4 10 -9 10 -5 0 -11 8 -14 18 -4 9 -17 35 -29 57 -29 50 -87 150 -111 190 -10 17 -21 38 -24 48 -3 9 -9 17 -14 17 -5 0 -9 5 -9 11 0 6 -19 43 -43 82 -24 40 -47 79 -50 87 -4 8 -15 29 -26 45 -10 17 -28 48 -41 70 -12 22 -30 54 -40 70 -78 132 -135 231 -135 235 0 3 -8 16 -16 30 -9 14 -53 89 -98 167 l-82 141 -174 1 -173 1 4 -63z"/>
    <path d="M3023 2255 c-43 -15 -507 -249 -514 -258 -3 -5 -10 -9 -15 -9 -13 0 -2058 -1021 -2065 -1031 -3 -5 -10 -8 -15 -8 -18 1 -44 -11 -44 -20 0 -6 -4 -8 -9 -5 -4 3 -16 0 -25 -7 -15 -11 -12 -19 29 -89 25 -42 45 -82 45 -88 0 -5 5 -10 10 -10 6 0 10 -6 11 -12 0 -7 13 -33 28 -58 l27 -45 1130 -2 c621 -1 2418 -4 3993 -5 l2864 -3 44 73 c24 41 43 78 43 83 0 5 5 9 10 9 6 0 10 5 10 10 0 6 12 29 26 51 14 23 22 45 17 50 -8 8 -88 49 -858 439 -700 355 -725 368 -742 382 -9 7 -19 12 -22 11 -6 -2 -331 157 -341 167 -3 3 -81 43 -175 90 -93 47 -191 97 -217 112 -27 15 -48 26 -48 24 0 -3 -21 7 -47 21 -27 15 -97 51 -158 82 l-110 55 -1426 1 c-961 0 -1437 -3 -1456 -10z"/>
  </g>
</svg>
