<svg width="488.03372" height="98.338676" xmlns="http://www.w3.org/2000/svg">
  <g transform="matrix(1.25,0,0,-1.25,-689.93349,249.98662)">
    <g transform="matrix(1.9559587,0,0,1.9559587,-517.56211,-107.45309)">
      <g style="fill: #d01931; fill-opacity: 1" transform="matrix(2.2838801,0,0,2.2838801,714.17289,128.79487)">
        <path d="m 0,0 3.239,5.585 0.423,6.754 -0.726,10e-4 -8.971,-15.465 0.379,-0.653 z m 0.767,-1.309 -6.088,-3.043 0.376,-0.655 17.875,-0.033 0.361,0.625 -6.103,3.1 z M 5.114,12.336 4.335,12.339 4.72,5.584 7.937,-0.02 l 5.686,-3.823 0.4,0.682 z" />
      </g>
      <g transform="matrix(2.2838801,0,0,2.2838801,-702.28199,-150.42683)" style="fill: #2b2c2b; fill-opacity: 1">
        <g transform="translate(599.9731,123.7541)">
          <path d="m 0,0 -0.002,-2.305 c -0.005,-2.696 -1.854,-4.207 -4.434,-4.28 h -0.558 c -2.582,0.107 -4.413,1.616 -4.408,4.295 v 2.305 c 0.009,2.702 1.858,4.201 4.45,4.275 0.131,0.002 0.385,0 0.513,0 C -1.838,4.207 0.007,2.681 0,0 M -4.88,2.053 C -5.897,1.997 -6.874,1.472 -6.878,0.005 v -2.31 c -0.004,-1.411 0.971,-1.979 1.989,-2.041 0.052,-0.006 0.308,-0.006 0.364,-0.003 0.998,0.056 1.987,0.598 1.989,2.038 L -2.533,0 c 0.005,1.451 -0.985,1.994 -1.999,2.053 -0.125,0.009 -0.231,0.009 -0.348,0" />
        </g>
        <g transform="translate(603.8603,123.4729)">
          <path d="M 0,0 C 0,0 3.79,4.313 4.016,4.553 L 7.184,4.545 2.579,-0.658 7.411,-6.017 4.201,-6.012 -0.004,-1.336 -0.012,-6.005 -2.561,-6 -2.537,7.137 0.01,7.133 Z" />
        </g>
        <g transform="translate(567.8198,121.9379)">
          <path d="M 0,0 0.005,1.859 C 0.012,4.56 -1.875,6.072 -4.46,6.16 L -4.947,6.163 C -7.549,6.082 -9.399,4.578 -9.401,1.879 l -0.005,-2.293 c -0.005,-2.572 1.91,-4.169 4.385,-4.298 0.263,-0.005 0.4,0.002 0.577,0 3.099,-0.005 4.258,1.565 4.4,3.361 l -2.332,0.006 c -0.062,-0.34 -0.177,-1.212 -2.13,-1.21 -0.343,0.004 -0.818,0.088 -1.159,0.2 -1.448,0.485 -1.217,2.272 -1.217,2.37 z m -6.884,2.051 c 0,1.389 0.923,1.93 2.017,1.973 0.117,0.003 0.236,0.006 0.339,-0.002 1.109,-0.046 2.037,-0.632 2.034,-1.981 V 1.862 l -4.394,0.004 z" />
        </g>
        <g transform="translate(578.4982,121.9222)">
          <path d="M 0,0 0.004,1.855 C 0.011,4.556 -1.878,6.068 -4.465,6.16 H -4.948 C -7.554,6.08 -9.409,4.575 -9.413,1.877 l -0.003,-2.295 c -0.005,-2.567 1.908,-4.171 4.387,-4.298 0.27,-0.005 0.401,0 0.58,0 3.104,-0.005 4.255,1.569 4.398,3.36 l -2.319,0.009 c -0.076,-0.341 -0.181,-1.212 -2.146,-1.209 -0.34,0.003 -0.81,0.088 -1.146,0.201 -1.461,0.482 -1.221,2.27 -1.223,2.366 z m -6.892,2.045 c 0.004,1.393 0.931,1.935 2.017,1.976 0.114,0.004 0.238,0.002 0.345,-0.003 1.105,-0.044 2.034,-0.631 2.031,-1.978 V 1.86 l -4.396,0.006 z" />
        </g>
        <g transform="translate(584.8406,128.0434)">
          <path d="m 0,0 c -1.181,0.003 -1.99,-0.319 -2.435,-0.7 l 0.003,3.301 -2.53,0.004 -0.021,-13.137 h 0.442 c 0,0 1.124,0.629 1.185,0.65 0.163,-0.173 1.271,-0.986 2.803,-0.986 0.195,-0.002 0.375,-0.017 0.565,-0.005 2.56,0.053 4.415,1.642 4.421,4.28 l 0.002,2.292 C 4.44,-1.721 2.581,-0.002 0,0 m 1.901,-6.602 c -0.001,-1.438 -1,-1.979 -1.994,-2.044 -0.052,0 -0.316,0.002 -0.363,0.005 -1.016,0.068 -1.991,0.628 -1.991,2.043 l 0.006,2.309 c 0.002,1.472 0.981,1.988 1.994,2.055 0.122,0.009 0.232,0.013 0.356,-10e-4 1.004,-0.069 1.997,-0.599 1.995,-2.061 z" />
        </g>
        <g transform="translate(558.0937,117.5499)">
          <path d="m 0,0 -4.863,5.425 c 0.242,-0.014 0.482,-0.024 0.728,-0.024 1.671,-0.002 3.751,1.052 3.754,3.728 0.009,3.209 -2.655,4.012 -5.016,4.014 l -5.67,0.014 -0.027,-13.136 2.569,-0.006 v 5.863 l 5.27,-5.872 z m -8.509,10.906 3.081,-0.009 c 1.423,0 2.682,-0.451 2.682,-1.804 C -2.75,7.736 -3.536,7.25 -5.435,7.259 l -3.082,0.002 z" />
        </g>
      </g>
    </g>
  </g>
</svg>
